<svg version="1.0" xmlns="http://www.w3.org/2000/svg" viewBox="0 0 100 100"><path d="M0 50v50h100V0H0v50zm55.9-29.3 4.7 15.8 16.4 1 16.3 1-10.9 9c-5.9 4.9-11.6 9.7-12.6 10.5-1.7 1.4-1.6 2.2 2.7 17.9 2.4 9.1 4.3 16.6 4.2 16.8-.2.1-6.1-4-13.2-9.2-7-5.2-13.3-9.1-13.9-8.8-.6.4-6.7 4.7-13.6 9.5-6.8 4.8-12.5 8.6-12.7 8.5-.1-.2 1.8-7.7 4.2-16.8 4.3-15.7 4.4-16.5 2.7-17.9-1-.8-6.7-5.6-12.6-10.5l-10.9-9 16.3-1 16.3-1 5.5-16.3c3-9 5.6-16.1 5.9-15.9.2.3 2.6 7.6 5.2 16.4z"/><path d="m45.2 21.8-5.3 15.9-15.4.9-15.4.9 12 9.9c8.2 6.8 11.8 10.4 11.5 11.5-2.8 9.6-7.6 28-7.6 28.9 0 .6 5.5-2.7 12.3-7.5 6.7-4.7 12.7-8.6 13.2-8.6.6 0 6.4 3.9 12.8 8.6 6.4 4.8 11.7 8.2 11.7 7.5 0-.9-4.8-19.2-7.6-28.9-.3-1.1 3.3-4.7 11.5-11.5l12-9.9-8.2-.7c-4.5-.3-11.4-.6-15.4-.7l-7.2-.1-2.5-8.3c-1.3-4.5-3.5-11.7-4.8-16l-2.3-7.8-5.3 15.9z"/></svg>