<svg version="1.0" xmlns="http://www.w3.org/2000/svg" viewBox="0 0 225 225"><path d="M140.7 20.1c-16.1 3.8-30.2 19.7-31.5 35.7l-.5 6.5 4.9-.6c7-1 16.5-5.9 21.4-11.3 6.1-6.6 10.4-16.3 10.8-24.7.2-3.7 0-6.7-.4-6.6-.5.1-2.6.5-4.7 1zM131.5 66c-3.3 1-9.4 3-13.5 4.5l-7.4 2.7-12.1-4.1C89.2 65.9 85 65 79.8 65 53.2 65 34 88 34 119.8c0 26 11.9 55.5 29.9 74.6 10.2 10.7 17.8 12.2 31.8 6.4 6.7-2.8 9-3.2 16.8-3.3 7.9 0 10 .4 17.2 3.3 12.9 5 20.6 4.3 28.8-2.9 8.1-7.1 20.9-27 25-38.9 1.2-3.4 1.2-3.5-3.4-6.3-2.5-1.6-6.1-4.3-7.9-6-17.6-16.8-15.8-46.5 3.7-61.3l4.5-3.4-5.5-5.4c-11.5-11.1-28.3-15.2-43.4-10.6z"/></svg>